<!--?xml version="1.0" encoding="utf-8"?-->
<!-- Generator: Adobe Illustrator 18.1.1, SVG Export Plug-In . SVG Version: 6.00 Build 0)  -->

<svg version="1.1" id="_x32_" xmlns="http://www.w3.org/2000/svg" xmlns:xlink="http://www.w3.org/1999/xlink" x="0px" y="0px" viewBox="0 0 512 512" style="width: 256px; height: 256px; opacity: 1;" xml:space="preserve">
<style type="text/css">
	.st0{fill:#4B4B4B;}
</style>
<g>
	<path class="st0" d="M487.254,231.264c-9.44,0-17.642,5.286-21.814,13.047c-4.08,0-9.756,0-16.371,0
		c-2.676-44.792-20.601-85.495-48.648-116.958c4.57-4.57,8.494-8.493,11.385-11.385c8.576,2.809,18.39,0.831,25.214-5.983
		c9.673-9.673,9.673-25.346,0-35.003c-9.664-9.673-25.33-9.673-34.986,0c-6.706,6.698-8.743,16.28-6.158,24.748
		c-2.908,2.909-6.906,6.914-11.551,11.56c-31.488-27.947-72.195-45.781-116.95-48.374c0-6.515,0-12.1,0-16.205
		c7.937-4.121,13.367-12.398,13.367-21.972C280.742,11.077,269.664,0,256.002,0c-13.67,0-24.743,11.077-24.743,24.739
		c0,9.574,5.435,17.851,13.375,21.972c0,4.105,0,9.69,0,16.205c-44.763,2.593-85.462,20.427-116.95,48.374
		c-4.65-4.645-8.647-8.635-11.551-11.56c2.593-8.459,0.549-18.05-6.162-24.748c-9.657-9.673-25.33-9.673-34.987,0
		c-9.664,9.657-9.664,25.33-0.008,34.986c6.831,6.832,16.641,8.818,25.221,6c2.892,2.892,6.818,6.814,11.385,11.385
		C83.536,158.816,65.607,199.52,62.94,244.32c-6.619,0-12.286,0-16.38,0c-4.171-7.77-12.37-13.056-21.818-13.056
		c-13.654,0-24.736,11.07-24.736,24.732c0,13.67,11.082,24.748,24.736,24.748c9.689,0,18.053-5.576,22.122-13.687
		c4.046,0,9.585,0,16.034,0c2.531,44.884,20.393,85.704,48.398,117.266c-4.678,4.67-8.684,8.676-11.555,11.551
		c-8.464-2.593-18.05-0.549-24.756,6.149c-9.664,9.657-9.664,25.33,0,34.987c9.666,9.673,25.338,9.673,34.995,0.016
		c6.831-6.831,8.804-16.645,5.992-25.229c2.85-2.851,6.789-6.782,11.384-11.385c31.525,28.105,72.362,46.071,117.278,48.664
		c0,6.565,0,12.184,0,16.214c-7.94,4.114-13.375,12.391-13.375,21.964c0,13.661,11.074,24.748,24.743,24.748
		c13.662,0,24.74-11.086,24.74-24.748c0-9.557-5.43-17.851-13.367-21.964c0-4.03,0-9.648,0-16.214
		c44.913-2.593,85.745-20.542,117.283-48.664c4.586,4.604,8.518,8.534,11.376,11.385c-2.818,8.584-0.831,18.398,5.992,25.229
		c9.664,9.657,25.33,9.657,34.994,0c9.656-9.673,9.673-25.329,0-35.003c-6.706-6.698-16.288-8.742-24.756-6.149
		c-2.867-2.876-6.872-6.881-11.551-11.551c27.997-31.562,45.864-72.382,48.39-117.266c6.448,0,11.983,0,16.039,0
		c4.064,8.111,12.432,13.687,22.113,13.687c13.671,0,24.739-11.086,24.739-24.748C511.994,242.334,500.925,231.264,487.254,231.264z
		 M96.68,266.068c-5.568,0.016-10.085-4.504-10.085-10.072c0-5.568,4.517-10.089,10.085-10.072c5.572,0,10.092,4.504,10.084,10.072
		C106.772,261.564,102.252,266.068,96.68,266.068z M136.215,136.196c3.939-3.931,10.322-3.931,14.26,0
		c3.939,3.938,3.939,10.338,0,14.277c-3.938,3.939-10.32,3.939-14.26,0C132.272,146.534,132.272,140.134,136.215,136.196z
		 M158.225,173.991c7.483,7.479,13.13,13.13,14.921,14.925c6.802,6.797,8.655,13.595,8.04,25.346c6.179,0,17.926,0.614,24.112,6.806
		c3.632,3.615,10.853,10.844,16.222,16.221c-1.205,2.22-2.202,4.579-2.97,7.022c-7.587,0-17.768,0-22.887,0
		c-8.746,0-17.485-7.861-21.86-12.233c-7.87,8.743-13.986,12.233-23.61,12.241c-2.543,0-10.612,0-21.266,0
		C131.341,217.652,141.945,193.378,158.225,173.991z M150.475,375.796c-3.93,3.93-10.32,3.93-14.26,0
		c-3.943-3.948-3.943-10.338,0-14.277c3.939-3.939,10.329-3.939,14.26,0C154.414,365.458,154.414,371.848,150.475,375.796z
		 M157.942,337.668c-16.251-19.479-26.767-43.844-29.065-70.612c10.682,0,18.764,0,21.315,0c9.615,0,15.74,3.498,23.61,12.241
		c4.375-4.371,13.113-12.241,21.86-12.241c5.082,0,15.162,0,22.728,0c0.744,2.518,1.728,4.944,2.933,7.23
		c-5.347,5.343-12.444,12.449-16.03,16.03c-6.182,6.182-17.929,6.798-24.108,6.798c0.616,11.751-1.238,18.548-8.04,25.363
		C171.33,324.28,165.562,330.048,157.942,337.668z M244.634,316.029c0,8.742-7.874,17.485-12.25,21.855
		c8.747,7.878,12.25,13.995,12.25,23.609c0,2.577,0,10.778,0,21.598c-26.792-2.36-51.17-12.972-70.637-29.318
		c7.629-7.629,13.413-13.413,15.225-15.224c6.802-6.798,13.603-8.659,25.354-8.036c0-6.191,0.61-17.925,6.802-24.116
		c3.556-3.556,10.583-10.578,15.918-15.914c2.31,1.255,4.77,2.26,7.338,3.041C244.634,301.07,244.634,311,244.634,316.029z
		 M244.634,149.874c0,9.623-3.502,15.748-12.25,23.618c4.376,4.371,12.25,13.105,12.25,21.856c0,5.169,0,15.507,0,23.119
		c-2.418,0.732-4.729,1.688-6.927,2.842c-5.38-5.376-12.681-12.681-16.329-16.322c-6.192-6.182-6.802-17.942-6.802-24.116
		c-11.751,0.614-18.553-1.246-25.354-8.036c-1.787-1.795-7.421-7.438-14.896-14.9c19.416-16.188,43.666-26.675,70.308-29.036
		C244.634,139.42,244.634,147.365,244.634,149.874z M256.002,86.584c5.568,0,10.085,4.512,10.085,10.088
		c0,5.568-4.517,10.089-10.085,10.089c-5.572,0-10.084-4.521-10.084-10.089C245.918,91.096,250.43,86.584,256.002,86.584z
		 M256.002,425.408c-5.572,0-10.084-4.521-10.084-10.089c0-5.568,4.512-10.088,10.084-10.088c5.568,0,10.085,4.52,10.085,10.088
		C266.087,420.886,261.57,425.408,256.002,425.408z M263.332,263.325c-1.923,1.911-4.421,3.041-7.33,3.041
		c-2.904,0-5.405-1.13-7.329-3.041c-1.903-1.928-3.03-4.421-3.037-7.33c0.008-2.908,1.134-5.402,3.037-7.33
		c1.924-1.903,4.425-3.042,7.329-3.042c2.909,0,5.406,1.139,7.33,3.042c1.904,1.928,3.029,4.422,3.038,7.33
		C266.361,258.904,265.235,261.397,263.332,263.325z M361.53,136.196c3.948-3.931,10.321-3.931,14.26,0
		c3.939,3.938,3.939,10.32,0,14.277c-3.939,3.939-10.313,3.939-14.26,0C357.59,146.516,357.59,140.134,361.53,136.196z
		 M353.784,173.991c16.288,19.388,26.875,43.661,29.294,70.32c-10.653,0-18.723,0-21.266,0c-9.624,0.008-15.74-3.49-23.609-12.233
		c-4.38,4.372-13.113,12.233-21.86,12.233c-5.118,0-15.294,0.008-22.886,0.008c-0.768-2.452-1.766-4.811-2.97-7.031
		c5.368-5.376,12.598-12.606,16.23-16.221c6.179-6.192,17.925-6.806,24.108-6.806c-0.615-11.751,1.238-18.549,8.036-25.346
		C340.654,187.12,346.297,181.47,353.784,173.991z M267.374,195.348c0-8.75,7.866-17.485,12.237-21.856
		c-8.738-7.87-12.237-13.995-12.237-23.618c0-2.51,0-10.454,0-20.975c26.639,2.36,50.892,12.848,70.305,29.036
		c-7.472,7.463-13.11,13.106-14.896,14.892c-6.802,6.814-13.612,8.659-25.35,8.045c0,6.182-0.624,17.933-6.802,24.116
		c-3.652,3.64-10.954,10.945-16.334,16.322c-2.194-1.155-4.508-2.11-6.923-2.842C267.374,210.855,267.374,200.516,267.374,195.348z
		 M267.374,383.092c0-10.82,0-19.022,0-21.598c0-9.614,3.499-15.731,12.237-23.609c-4.37-4.37-12.237-13.113-12.237-21.855
		c0-5.028,0-14.958,0-22.505c2.56-0.781,5.024-1.786,7.339-3.041c5.335,5.336,12.361,12.358,15.918,15.914
		c6.178,6.192,6.802,17.926,6.802,24.116c11.746-0.623,18.548,1.222,25.35,8.036c1.816,1.812,7.592,7.596,15.228,15.224
		C318.54,370.12,294.163,380.732,267.374,383.092z M375.79,375.796c-3.939,3.93-10.322,3.93-14.26,0
		c-3.939-3.948-3.939-10.338,0-14.277c3.939-3.939,10.321-3.939,14.26,0C379.729,365.458,379.729,371.848,375.79,375.796z
		 M354.066,337.668c-7.628-7.62-13.396-13.388-15.208-15.191c-6.797-6.814-8.651-13.612-8.036-25.363
		c-6.183,0-17.929-0.615-24.116-6.798c-3.577-3.582-10.679-10.687-16.026-16.03c1.205-2.286,2.19-4.696,2.933-7.23
		c7.571,0,17.647,0,22.728,0c8.747,0,17.48,7.87,21.86,12.241c7.87-8.743,13.986-12.241,23.609-12.241c2.543,0,10.637,0,21.324,0
		C380.826,293.824,370.313,318.189,354.066,337.668z M415.33,266.068c-5.576,0-10.089-4.504-10.089-10.072
		c0-5.568,4.513-10.072,10.089-10.072c5.568,0,10.08,4.504,10.08,10.072C425.41,261.564,420.898,266.068,415.33,266.068z" style="fill: rgb(75, 75, 75);"></path>
</g>
</svg>
