<?xml version="1.0" encoding="UTF-8"?><!DOCTYPE svg PUBLIC "-//W3C//DTD SVG 1.1//EN" "http://www.w3.org/Graphics/SVG/1.1/DTD/svg11.dtd"><svg xmlns="http://www.w3.org/2000/svg" xmlns:xlink="http://www.w3.org/1999/xlink"><symbol id="anchorBtn_arrow-icon" viewBox="0 0 13 8"><path data-name="&gt;thin" d="M0 .942l1.328-.943 5.171 5.619 5.17-5.619 1.328.943-6.5 7.063z" fill-rule="evenodd"/></symbol><symbol id="brackets-left" viewBox="0 0 13 71"><g data-name="&#x30EC;&#x30A4;&#x30E4;&#x30FC; 2"><path d="M13 71H0V0h13v2H2v67h11v2z" data-name="&#x30EC;&#x30A4;&#x30E4;&#x30FC; 1"/></g></symbol><symbol id="brackets-right" viewBox="0 0 13 71"><g data-name="&#x30EC;&#x30A4;&#x30E4;&#x30FC; 2"><path d="M13 71H0v-2h11V2H0V0h13v71z" data-name="&#x30EC;&#x30A4;&#x30E4;&#x30FC; 1"/></g></symbol><symbol id="btn_searchSchoolBox_home" viewBox="0 0 159.36 110"><g id="&#x30EC;&#x30A4;&#x30E4;&#x30FC;_2" data-name="&#x30EC;&#x30A4;&#x30E4;&#x30FC; 2"><g id="&#x30EC;&#x30A4;&#x30E4;&#x30FC;_4" data-name="&#x30EC;&#x30A4;&#x30E4;&#x30FC; 4"><path d="M64 35.29l5.62-1a15.85 15.85 0 10-3.75-4.2l-2.83 3.56a1 1 0 00-.04 1.16 1 1 0 001 .48zm1.53-13.47a13.91 13.91 0 115 10.67 1 1 0 00-.64-.23h-.17l-3.49.59 1.67-2.05a1 1 0 000-1.18 13.81 13.81 0 01-2.36-7.8z"/><path d="M130.39 59.88a3.28 3.28 0 10-6.56 0v.85c-2.34-8-7.47-12.34-11.54-13.11a7.83 7.83 0 00-1.25-.11l-.05-.22c3-.94 4.69-4.68 4.66-8.19a9 9 0 00-8.32-9.1c-4-.44-8.49 1.4-9.52 5.78v.1c0 .03-.21 1.41-1.2 1.63a1 1 0 00-.18 1.89 7.88 7.88 0 002.17.58l1.09 5.6a5.81 5.81 0 005.1 4.7 3.23 3.23 0 00.9 1.48c-.47 1.92-.37 4.86 1.52 9.23l-.46.39a13.51 13.51 0 01-9.44 2.41h-.12a11 11 0 01-6-2.63l-7.78-11a1 1 0 00-1.63 1.15l7.4 10.46a4.67 4.67 0 00-.33 3.1A4.57 4.57 0 0090 66.79h-6.12V57.6a1 1 0 00-1-1h-7a1 1 0 00-1 1v9.19H70.6v-.09a6 6 0 00-4-4 .88.88 0 000-.17l-1.82-5.24a1 1 0 00-1.89.65l1.53 4.43a12.38 12.38 0 00-2.93.3c-2.2.38-6.71.37-9.81-1.93 1.85-4.39 1.89-7.32 1.38-9.19a5.78 5.78 0 004.5-3.48l2.23-5.25a8.2 8.2 0 002.21-.14 1 1 0 00.23-1.89c-.92-.42-.84-1.8-.84-1.84v-.1c-.09-4.5-4.15-7.24-8.11-7.63a9 9 0 00-10 7.19c-.75 3.43.15 7.45 2.85 9l-.15.35c-4 1-8.79 5.31-11 13v-.85a3.28 3.28 0 00-6.56 0v21.25a3.59 3.59 0 00.13.87 4.1 4.1 0 00-.13.94 3.75 3.75 0 003.74 3.74h.45l-3.32 16.15 2 .4 3.4-16.55h13.99l3.39 16.55 1.88-.38a4.05 4.05 0 00.12.47 1 1 0 001 .71H67a2.54 2.54 0 002.54-2.54A2.52 2.52 0 0068 99.17l-1.08-.44v-2.89h25v2.89l-1.08.44a2.54 2.54 0 001 4.89h12a1 1 0 00.95-.71c.05-.16.09-.31.13-.47l1.87.38 3.39-16.55h14.07l3.39 16.55 2-.4-3.31-16.15h.44a3.75 3.75 0 003.62-3.71 3.62 3.62 0 00-.13-.94 3.16 3.16 0 00.13-.87zm-3.74 24.83h-19a1.86 1.86 0 01-.67-.13c.12-1.38.18-2.53.22-3.29v-.07h16.66a3.27 3.27 0 003.27 3.21 3.31 3.31 0 00.55-.06 1.7 1.7 0 01-1.03.34zM103 102.06H91.77a.54.54 0 01-.21-1l.33-.13 1-.41 1-.41 1.61-.65 1-.41.26-.1h6.31a11.91 11.91 0 01-.07 3.11zm-35.41-.54a.54.54 0 01-.54.54H55.81a11.91 11.91 0 01-.1-3.15H62l.26.1 1 .41 1.61.65 1 .41 1 .41.33.13a.53.53 0 01.36.5zM31.13 84.38a3.19 3.19 0 00.54.06A3.29 3.29 0 0035 81.23h16.61v.07c0 .76.11 1.91.22 3.29a1.86 1.86 0 01-.67.13h-19a1.67 1.67 0 01-1.03-.34zm-.74-24.5a1.28 1.28 0 012.56 0v21.35a1.28 1.28 0 01-1.27 1.21 1.34 1.34 0 01-1.28-1.28V59.88zm14.92-9.8a3.33 3.33 0 005.85 2.12c.33 1.35.32 3.56-1 7a8.47 8.47 0 01-1.57-4.36 1 1 0 00-1.08-.91 1 1 0 00-.92 1.07v.14a10 10 0 002.65 6.1c.24.25.5.49.77.72.1.08.2.18.31.26a5.65 5.65 0 00.51.34c3.22 2.18 7.46 2.45 10.08 2.18l.58 2.05.07.23a28.6 28.6 0 01-4.6.47A15.86 15.86 0 0149.51 66a9.84 9.84 0 01-.9-.5c-.26-.16-.53-.31-.78-.49l-.08-.07a13.71 13.71 0 01-5.06-8.73v-.12a1 1 0 00-1.95.32 15.5 15.5 0 005.93 10.2c.18.13.36.24.54.36a22.51 22.51 0 00-.59 4.76H35.23a46.63 46.63 0 011.62-10.33c1.79-6.23 5.3-9.96 8.46-11.32zm5.93-.59a1.09 1.09 0 00-.51 0 1 1 0 00-.66.56l-.06.14-.14.33a1.33 1.33 0 01-2.46-1l.42-1 .42-1 .11-.25 1.75-4.13a1 1 0 00-.53-1.31l-.58-.25c-.14 0-.14-.11-.15-.14a.38.38 0 01.13-.3h.2l.58.25a1.05 1.05 0 00.78 0 1 1 0 00.54-.55c.36-.87.66-1.08.8-1.13.45-.15 1.45.43 2.42 1a17.19 17.19 0 003.49 1.68l-2.07 4.88a3.82 3.82 0 01-3.56 2.33 4.13 4.13 0 01-.92-.11zm11.68 14.94c3.61-.51 5 1.06 5.57 2.36h-4.9zm27.9-.07a2.83 2.83 0 01-.06-.42 2.41 2.41 0 010-.6 13.1 13.1 0 001.41.89A13.63 13.63 0 0094 65a13.27 13.27 0 001.77.51l-.47 1.22a8.29 8.29 0 01-1.81-.27 6.77 6.77 0 01-1.2-.43L92.1 66a2.49 2.49 0 01-1.28-1.64zM108 62.93l.1-.09a10.33 10.33 0 00.79-.67c.26-.25.51-.51.74-.78a10.9 10.9 0 002.58-6.25.68.68 0 000-.14 1 1 0 00-2-.17 9.27 9.27 0 01-1.52 4.47c-1.24-3.14-1.38-5.28-1.15-6.66a3.44 3.44 0 00.46 0 3.55 3.55 0 00.64-.06 3.34 3.34 0 002.68-3.1c.2 0 .41 0 .62.08 3.47.65 7.91 4.54 10 11.77a46.5 46.5 0 011.63 10.33H112.2a22.51 22.51 0 00-.59-4.76c.18-.12.37-.23.54-.36a15.53 15.53 0 005.94-10.2 1 1 0 00-2-.32.42.42 0 000 .12A13.76 13.76 0 01111 64.9v.1c-.25.18-.52.33-.78.49a9.67 9.67 0 01-.89.5 15.92 15.92 0 01-7.47 1.53 27.1 27.1 0 01-4.5-.45l.1-.25.37-1A15.66 15.66 0 00108 62.93zm-1.38-13.84a1 1 0 00-1-.81 3.84 3.84 0 01-3.92-3.11l-1-5.2a17.81 17.81 0 003.77-.91c1.06-.35 2.16-.72 2.56-.48.14.08.39.35.55 1.28a1 1 0 00.42.65 1 1 0 00.75.16l.63-.12c.09 0 .22 0 .27.18s-.09.26-.18.28l-.62.12a1 1 0 00-.85 1.17l.85 4.39.21 1.11.2 1v.28a1.29 1.29 0 01-.12.85 1.34 1.34 0 01-.81.68h-.12a1.31 1.31 0 01-1-.2 1.32 1.32 0 01-.58-.86v-.05zm.49-17.09a8.15 8.15 0 012.71.8 6.69 6.69 0 012.23 1.72 5.69 5.69 0 01.73 1.06 7.09 7.09 0 01.84 3v.59a9 9 0 01-.43 2.79 7.34 7.34 0 01-.88 1.87 4.71 4.71 0 01-1.23 1.17 3.17 3.17 0 01-.47.27l-.48-2.42h.07a2.14 2.14 0 001.08-.9 2.26 2.26 0 00.26-1.59 2.18 2.18 0 00-2.31-1.81 2.93 2.93 0 00-1.23-1.68c-1.19-.72-2.6-.25-4.22.29a14.84 14.84 0 01-3.52.84 7 7 0 01-1 0h-.16l.12-.2a5.11 5.11 0 00.45-1 4 4 0 00.13-.59 4.26 4.26 0 01.17-.54c1.03-2.86 4.26-4.02 7.14-3.67zm16.72 48.27zM34 80.23h18.56v.41a2.76 2.76 0 00-1.42-.4H34zm.23-7.54zm19.6 11.07c-.06-.75-.1-1.41-.14-1.94-.06-1-.08-1.61-.08-1.63v-.09a1 1 0 00-1-.88H35v-5.53h18.78A4.25 4.25 0 0158 77.3l3 19.61h-5.38a84.42 84.42 0 01-1.7-11.43c-.06-.61-.1-1.19-.14-1.72zm70.05-11.07zm-20.72 24.22h-5.43l3-19.61a4.25 4.25 0 014.27-3.61h18.82v5.53h-17.6a1 1 0 00-1 .88v.09c0 .03 0 .63-.08 1.63 0 .53-.08 1.19-.13 1.94 0 .53-.09 1.11-.15 1.72a84.42 84.42 0 01-1.7 11.43zm-7.31-28.12a32.36 32.36 0 004 .6v1.15H58.92v-1.15a32.22 32.22 0 004-.6h32.93zm-31 29.12l-1.61-.65v-1.42h1.61zm-3.57-12.53L60 77a6.23 6.23 0 00-6.2-5.3h-5.2A20.26 20.26 0 0149 68a17.91 17.91 0 007.64 1.55h.29v2a1 1 0 001 1h3.36zm39.59-12.84a1 1 0 001-1v-2h.28a17.91 17.91 0 007.64-1.54 20.26 20.26 0 01.39 3.74H105a6.23 6.23 0 00-6.2 5.3l-1.31 8.4v-12.9zm-7 23.3h1.63v1.42l-1.61.65zm34.5-15v.29a1.24 1.24 0 01-.31.81 1.26 1.26 0 01-2.24-.74V59.88a1.28 1.28 0 112.56 0v21zM76.91 58.6h5v8.19h-5zM45.55 43.68a7.76 7.76 0 01-.48-2 9 9 0 01.16-2.82c.05-.2.1-.38.15-.56a7.18 7.18 0 011.44-2.75l.94-.89a6.94 6.94 0 012.54-1.22 8.2 8.2 0 012-.25 7.32 7.32 0 01.81 0c2.89.28 5.84 2.1 6.25 5.08a5.07 5.07 0 01.05.56 4.07 4.07 0 000 .6 5.19 5.19 0 00.22 1.11l-.08.2a7.9 7.9 0 01-1-.21A15.19 15.19 0 0155.31 39c-1.48-.87-2.76-1.61-4.07-1.17a3 3 0 00-1.57 1.38 2.14 2.14 0 00-1.9.34 2.36 2.36 0 00-.9 2.14 1.58 1.58 0 00.1.43 2.12 2.12 0 00.86 1.1h.06l-1 2.27a4.57 4.57 0 01-.41-.37 4.79 4.79 0 01-.93-1.44zm5.17 43h.44a3.41 3.41 0 00.84-.08 81.92 81.92 0 001.81 11.34 14.67 14.67 0 00-.13 3.25zm15.17 7.13h-2.61V72.54H95.5v21.3H65.89zM105 97.94a79 79 0 001.81-11.34 3.48 3.48 0 00.85.11h.44l-3 14.48a14.06 14.06 0 00-.1-3.25zM71.31 28.53h16.17a1 1 0 001-1V16.11a1 1 0 00-1-1H71.31a1 1 0 00-1 1v11.42a1 1 0 001 1zm15.17-2h-6.09v-9.42h6.09zm-14.17-9.42h6.08v9.42h-6.08z"/></g></g></symbol><symbol id="btn_searchSchoolBox_kobetsu" viewBox="0 0 159.36 110"><g id="&#x30EC;&#x30A4;&#x30E4;&#x30FC;_2" data-name="&#x30EC;&#x30A4;&#x30E4;&#x30FC; 2"><g id="&#x30EC;&#x30A4;&#x30E4;&#x30FC;_2-2" data-name="&#x30EC;&#x30A4;&#x30E4;&#x30FC; 2"><g id="&#x30EC;&#x30A4;&#x30E4;&#x30FC;_2-3" data-name="&#x30EC;&#x30A4;&#x30E4;&#x30FC; 2"><g id="&#x30EC;&#x30A4;&#x30E4;&#x30FC;_2-2-2" data-name="&#x30EC;&#x30A4;&#x30E4;&#x30FC; 2-2"><path d="M66 40.16a4.62 4.62 0 10-4.61 4.62A4.61 4.61 0 0066 40.16z"/><path d="M114.91 48.32h-3a34.72 34.72 0 00-46-26.1 18.83 18.83 0 012.09.67c.63.25 1.25.53 1.85.84a32.52 32.52 0 017.91-1 32.14 32.14 0 0131.43 25.57h-2.17a30 30 0 00-34.61-23c.42.31.82.65 1.22 1a28.81 28.81 0 0132.18 22h-2.74l-9-10.58a1.31 1.31 0 00-1.84-.16 1.21 1.21 0 00-.16.16l-9 10.58H78c-.16.44-.33.88-.51 1.31L77 50.94h6.82a1.33 1.33 0 001-.46l8.39-9.88 8.39 9.88a1.33 1.33 0 001 .46h11V69.4H96.3v-8.3a2.13 2.13 0 00-2.13-2.1h-2.38a2.12 2.12 0 00-2.12 2.12v8.31H72.74V59.22a94.402 94.402 0 01-2.62 4.35v5.91h-7.84c.84-.36 1.83-1.36 3.62-3.87 1.53-2.16 3.27-4.92 4.89-7.79 2.52-4.45 6.74-12.65 6.74-17.66a16.15 16.15 0 10-32.29-.39v.39c0 5 4.22 13.21 6.74 17.66 1.62 2.87 3.36 5.63 4.89 7.79 1.79 2.51 2.78 3.51 3.62 3.87h-7.4a28.48 28.48 0 01-3.86-11.74c-.45-.8-.89-1.64-1.33-2.5a30 30 0 0054.46 16.85h2.54V72h.1a32.08 32.08 0 01-59.21-17.15 33.41 33.41 0 01.2-3.6c-.35-.78-.68-1.55-1-2.33s-.59-1.55-.85-2.31A34.69 34.69 0 00108 72h6.89a1.31 1.31 0 001.31-1.31V49.63a1.31 1.31 0 00-1.29-1.31zM55 54.88c-3.57-6.44-5.69-12-5.69-14.72a12.11 12.11 0 1124.21-.33v.33c0 2.77-2.12 8.28-5.68 14.72a79.83 79.83 0 01-6.42 10 77.56 77.56 0 01-6.42-10zm22.85 28.74a28.73 28.73 0 01-23-11.53h46.06a28.74 28.74 0 01-23.06 11.53z"/><path d="M77.15 60.38h2.99v4.71h-2.99zM83.1 60.38h2.99v4.71H83.1zM100.19 60.38h2.99v4.71h-2.99zM109.13 65.08v-4.7h-2.99V65.08h2.99zM93.17 54.4a4.49 4.49 0 10-4.48-4.49 4.49 4.49 0 004.48 4.49zm0-7.31a2.82 2.82 0 11-2.82 2.82 2.82 2.82 0 012.82-2.82z"/><path d="M95.08 49.57h-1.35v-1.53H92.3V51h2.78v-1.43z"/></g></g></g></g></symbol><symbol id="btn_searchSchoolBox_online" viewBox="0 0 159.36 110"><g id="&#x30EC;&#x30A4;&#x30E4;&#x30FC;_2" data-name="&#x30EC;&#x30A4;&#x30E4;&#x30FC; 2"><g id="_1" data-name="1"><path d="M127.14 75H117V33a6 6 0 00-6-6H94c.12.39.23.78.31 1.17a11.27 11.27 0 01.21 1.16H111a3.69 3.69 0 013.68 3.67v42H88.62a1.16 1.16 0 00-1.16 1.16v2.13H70.72v-2.16A1.16 1.16 0 0069.55 75H43.7V33a3.69 3.69 0 013.69-3.69H63.9a14.805 14.805 0 01.52-2.33h-17a6 6 0 00-6 6V75H31.24a1.16 1.16 0 00-1.17 1.16v2.45a6.22 6.22 0 006.21 6.21h85.82a6.22 6.22 0 006.21-6.21v-2.48a1.16 1.16 0 00-1.17-1.13zM126 78.58a3.88 3.88 0 01-3.88 3.88H36.28a3.88 3.88 0 01-3.88-3.88V77.3h36v2.13a1.19 1.19 0 00.33.81 1.15 1.15 0 00.83.35h19.06a1.13 1.13 0 00.83-.35 1.15 1.15 0 00.34-.81V77.3H126z"/><path d="M68.42 45.62a12.68 12.68 0 00.93 2.38A13.57 13.57 0 0071 50.42l-1.3 1.7-.26.06a26.93 26.93 0 00-8.69 3.67 16.91 16.91 0 00-7.85 13.51h-4.53v-35h15.48q-.06-.57-.09-1.17v-1.17H47.2a1.17 1.17 0 00-1.2 1.13v37.38a1.16 1.16 0 001.16 1.16h64a1.16 1.16 0 001.16-1.16V33.15a1.17 1.17 0 00-1.14-1.15H94.66v1.17c0 .38-.05.79-.09 1.17H110v35h-4.53a16.91 16.91 0 00-7.85-13.51 27.06 27.06 0 00-8.75-3.68l-.2-.05-1.33-1.75A14.4 14.4 0 0089 48a12.68 12.68 0 00.93-2.34 4 4 0 002.64-1.17 4.05 4.05 0 001.19-2.86 4.17 4.17 0 00-.37-1.63 4 4 0 00-.66-1 4.12 4.12 0 00-1.22-1c.16-.63.34-1.43.49-2.34.07-.42.13-.87.18-1.33s.08-.77.1-1.17V33v-1.06a17.36 17.36 0 00-.2-2.68 11.4 11.4 0 00-.25-1.16 9.4 9.4 0 00-.34-1.1 8.21 8.21 0 00-.87-1.66c-2.49-3.68-6.35-5.55-11.48-5.55s-8.89 1.87-11.38 5.55a8.21 8.21 0 00-.87 1.66 9.4 9.4 0 00-.38 1.17 11.4 11.4 0 00-.25 1.16 16.2 16.2 0 00-.2 2.68v1.06a.41.41 0 010 .11c0 .4.06.79.1 1.17s.11.91.18 1.33c.15.91.33 1.71.49 2.34a4.13 4.13 0 00-1.26 1A4.19 4.19 0 0065 40a4 4 0 003.42 5.63zm0-13.64a13.29 13.29 0 01.23-2.68 9.17 9.17 0 01.27-1 .65.65 0 000-.13 7.74 7.74 0 01.54-1.17c.07-.12.15-.24.23-.36 2.06-3 5.15-4.52 9.45-4.52s7.52 1.52 9.55 4.52c.08.12.16.24.23.36a6.83 6.83 0 01.52 1.17v.13a8.64 8.64 0 01.27 1A13.29 13.29 0 0190 32v1.17a.28.28 0 000 .09v-.09a9 9 0 00-.66-1.17c-.1-.17-.2-.35-.32-.52a10 10 0 00-.61-.84 9.38 9.38 0 00-1.36-1.32 7.29 7.29 0 00-2.18-1.16 6.47 6.47 0 00-2.05-.33h-3.16a5.1 5.1 0 00-2.94.94 6.31 6.31 0 00-.63.53l-.09.09a5.83 5.83 0 00-.46.55 5 5 0 00-.89 2 4.48 4.48 0 00-.08.64 3.85 3.85 0 000 .48v.07a.26.26 0 01-.21.26l-.82.16-1.89.45a2.8 2.8 0 00-.94.35l-.17.1a3.28 3.28 0 00-.83.79 3.15 3.15 0 00-.53 1.21l-.08.38-.06.27c-.12-.52-.25-1.16-.37-1.86l-.12-.89c0-.32-.08-.65-.1-1v-.19c-.04-.39-.06-.78-.06-1.16zm21.9 11.19v-.54a1.43 1.43 0 00.14-.34l.43-1.88a1.71 1.71 0 01-.59 2.76zM86.24 48q-.17.26-.36.51a11.1 11.1 0 01-.76.91 12.4 12.4 0 01-1.25 1.17q-.47.38-.93.69a9.22 9.22 0 01-2 1 5.28 5.28 0 01-1.72.34 5 5 0 01-1.61-.3h-.13a10 10 0 01-2-1c-.23-.15-.45-.32-.68-.49a12.8 12.8 0 01-1.46-1.32c-.26-.29-.52-.59-.77-.91l-.4-.56a10.44 10.44 0 01-1.19-2.33l-.15-.45a10.44 10.44 0 01-.38-1.88v-.84a1.33 1.33 0 000-.19l.5-2.4.48-2.33.14-.65a.84.84 0 01.64-.64l.49-.09 2.21-.44a2.48 2.48 0 001.1-.51 2.61 2.61 0 001-2.06V33a2.8 2.8 0 01.08-.77l.09-.29a3 3 0 01.62-1 2.77 2.77 0 012-.85h3.14A5 5 0 0186.5 32a7.43 7.43 0 01.82 1.17l.09.17a7.19 7.19 0 01.4 1 6.31 6.31 0 01.31 1.87v6.2a9.1 9.1 0 010 .91 9.25 9.25 0 01-.35 1.77c-.05.19-.12.38-.18.56A10.07 10.07 0 0186.24 48zm10.09 9.83a14.48 14.48 0 016.82 11.57H84l-1.84-7.52.81-1.14 2.21 2.18a1.14 1.14 0 00.82.33 1.24 1.24 0 00.27 0 1.16 1.16 0 00.83-.76l2.59-7.65a24 24 0 016.64 2.95zm-41.1 11.53a14.48 14.48 0 016.82-11.57 24 24 0 016.69-3l2.59 7.65a1.16 1.16 0 00.83.76 1.24 1.24 0 00.27 0 1.14 1.14 0 00.82-.33l2.21-2.18.81 1.14-1.84 7.52zm26-10.27l-.39.55-.47.67H78l-.51-.72-.35-.5.1-.18 1-1h1.86l1 1zm-2.72 3.55h1.39l1.65 6.72h-4.72zM72.64 52.1c.22.19.44.37.67.54a12.92 12.92 0 001.49 1 11.32 11.32 0 001.36.66l1.09 1.3-1.16 1.14-.71.69-2.48 2.44-1.9-5.64.19-.25.87-1.13zm14.48 1.82l.23.29-1.92 5.68L83 57.47l-.73-.71-1.14-1.12 1.14-1.35a12 12 0 001.24-.62 14 14 0 001.5-1l.69-.57.59.77zM68 41.88v1.25a1.71 1.71 0 01-.46-2.77z"/></g></g></symbol><symbol id="checkTxt-icon" viewBox="0 0 21.03 20"><path d="M16.524 10.381v7.311H2.291V3.423h11l1.869-2.3H1.14A1.149 1.149 0 000 2.274v16.569a1.148 1.148 0 001.147 1.151h16.529a1.149 1.149 0 001.148-1.151V7.555zm-7.56 4.948a1.143 1.143 0 01-.813-.342l-4.6-4.665a1.178 1.178 0 010-1.649 1.139 1.139 0 011.626 0l3.7 3.752L18.967.432a1.137 1.137 0 011.618-.168 1.176 1.176 0 01.165 1.639l-10.894 13a1.138 1.138 0 01-.833.429.582.582 0 01-.059-.003z" fill-rule="evenodd"/></symbol><symbol id="common_blank-icon" viewBox="0 0 16 15"><path d="M0 5v10h12v-2H2V5zm4-5v11h12V0h-2v9H6V0zm2 0h8v2H6z" fill-rule="evenodd"/></symbol><symbol id="common_num1-txt" viewBox="0 0 81 64"><path d="M49.32 0v59.4h-1.44V2.7a24.62 24.62 0 01-6.8 7.2 32.565 32.565 0 01-8.955 4.5l-.45-1.17a35.126 35.126 0 009.63-5.31A22.153 22.153 0 0047.88 0z"/></symbol><symbol id="common_num10-txt" viewBox="0 0 81 64"><g><path d="M21.33.9v59.4h-1.44V3.6a24.632 24.632 0 01-6.79 7.2 32.607 32.607 0 01-8.96 4.5l-.45-1.17a35.114 35.114 0 009.63-5.31A22.153 22.153 0 0019.89.9zM40.5 53.281q-5.491-7.918-5.49-22.681T40.5 7.92Q45.987 0 56.159 0T71.82 7.92q5.489 7.922 5.49 22.68t-5.49 22.681Q66.329 61.2 56.159 61.2T40.5 53.281zm30.284-.9q5.085-7.561 5.085-21.781T70.784 8.82Q65.7 1.262 56.159 1.26T41.534 8.82q-5.085 7.558-5.085 21.78t5.085 21.781q5.085 7.559 14.625 7.558t14.625-7.558z"/></g></symbol><symbol id="common_num11-txt" viewBox="0 0 81 64"><g><path d="M35.1 0v59.4h-1.44V2.7a24.62 24.62 0 01-6.795 7.2 32.551 32.551 0 01-8.955 4.5l-.45-1.17a35.111 35.111 0 009.63-5.31A22.153 22.153 0 0033.66 0zM63.54 0v59.4H62.1V2.7a24.623 24.623 0 01-6.8 7.2 32.559 32.559 0 01-8.954 4.5l-.45-1.17a35.126 35.126 0 009.63-5.31A22.163 22.163 0 0062.1 0z"/></g></symbol><symbol id="common_num12-txt" viewBox="0 0 81 64"><g><path d="M23.041.9v59.4H21.6V3.6a24.649 24.649 0 01-6.8 7.2 32.615 32.615 0 01-8.954 4.5L5.4 14.131a35.114 35.114 0 009.63-5.311A22.167 22.167 0 0021.6.9zM36.18 59.041l2.88-2.432Q51.389 46.441 57.69 40.59a65.769 65.769 0 0010.125-11.61 20.583 20.583 0 003.825-11.429q0-7.651-4.54-11.971T54.72 1.26q-7.921 0-12.69 4.816t-5.13 13l-1.35-.539Q36 10.08 41.085 5.041T54.72 0q8.548 0 13.41 4.68t4.86 12.871A21.577 21.577 0 0169.345 29.3a61.2 61.2 0 01-9.765 11.47q-6.121 5.761-18.63 16.2l-2.34 1.98v.09H75.6v1.26H36.18z"/></g></symbol><symbol id="common_num13-txt" viewBox="0 0 81 64"><g><path d="M24.39.9v59.4h-1.44V3.6a24.632 24.632 0 01-6.795 7.2A32.607 32.607 0 017.2 15.3l-.45-1.17a35.114 35.114 0 009.63-5.31A22.153 22.153 0 0022.95.9zM68.219 4.1q4.5 4.095 4.5 11.384a16.172 16.172 0 01-3.014 9.856 12.632 12.632 0 01-8.505 4.99v.09a13.592 13.592 0 019.406 4.5A14.511 14.511 0 0174.25 45a14.976 14.976 0 01-2.43 8.506 16.441 16.441 0 01-6.525 5.67A20.345 20.345 0 0156.16 61.2q-8.011 0-13.095-3.646a16.256 16.256 0 01-6.525-9.946l1.26-.808a15.471 15.471 0 005.94 9.629q4.679 3.51 12.42 3.509a19.034 19.034 0 008.46-1.838 14.684 14.684 0 005.985-5.221 14.239 14.239 0 002.2-7.965A13.424 13.424 0 0068.8 34.875q-4-3.914-11.2-3.914h-4.5V29.7h4.5q6.48 0 10.079-4.051a14.74 14.74 0 003.6-10.17q0-6.658-4.14-10.439T55.71 1.26a16.422 16.422 0 00-9.991 3.105 15.872 15.872 0 00-5.849 8.6l-1.441-.811A17.739 17.739 0 0145 3.24 18.094 18.094 0 0155.71 0q8.009 0 12.509 4.1z"/></g></symbol><symbol id="common_num14-txt" viewBox="0 0 81 64"><g><path d="M21.465 0v59.4h-1.44V2.7a24.62 24.62 0 01-6.795 7.2 32.551 32.551 0 01-8.955 4.5l-.45-1.17a35.111 35.111 0 009.63-5.31A22.153 22.153 0 0020.025 0zM77.175 40.949h-12.51V59.4h-1.44V40.949h-30.06v-1.26L62.685 0h1.98v39.689h12.51zm-42.39-1.26h28.44V1.529h-.09l-3.87 5.311z"/></g></symbol><symbol id="common_num2-txt" viewBox="0 0 81 64"><path d="M21.105 59.041l2.88-2.432q12.33-10.169 18.63-16.019A65.769 65.769 0 0052.74 28.98a20.575 20.575 0 003.825-11.429q0-7.65-4.545-11.971T39.645 1.26q-7.92 0-12.69 4.816t-5.13 13l-1.35-.539q.448-8.461 5.535-13.5T39.645 0q8.55 0 13.41 4.68t4.86 12.871A21.577 21.577 0 0154.27 29.3a61.2 61.2 0 01-9.765 11.47q-6.122 5.761-18.63 16.2l-2.34 1.98v.09h36.99v1.26h-39.42z"/></symbol><symbol id="common_num3-txt" viewBox="0 0 81 64"><path d="M53.325 4.1q4.5 4.095 4.5 11.384a16.173 16.173 0 01-3.015 9.856 12.632 12.632 0 01-8.505 4.994v.09a13.591 13.591 0 019.405 4.5A14.511 14.511 0 0159.355 45a14.976 14.976 0 01-2.43 8.506 16.434 16.434 0 01-6.525 5.67 20.342 20.342 0 01-9.135 2.024q-8.011 0-13.095-3.646a16.256 16.256 0 01-6.525-9.946l1.26-.808a15.48 15.48 0 005.94 9.629q4.679 3.51 12.42 3.509a19.034 19.034 0 008.46-1.843 14.684 14.684 0 005.985-5.221 14.239 14.239 0 002.2-7.965 13.427 13.427 0 00-4-10.034q-4.007-3.914-11.2-3.914h-4.5V29.7h4.5q6.48 0 10.08-4.051a14.744 14.744 0 003.6-10.17q0-6.658-4.14-10.439T40.815 1.26a16.421 16.421 0 00-9.99 3.105 15.874 15.874 0 00-5.85 8.6l-1.44-.811a17.732 17.732 0 016.57-8.91A18.094 18.094 0 0140.815 0q8.009 0 12.51 4.1z"/></symbol><symbol id="common_num4-txt" viewBox="0 0 81 64"><path d="M62.505 40.949H50V59.4h-1.44V40.949H18.5v-1.26L48.015 0H50v39.689h12.51zm-42.39-1.26h28.44V1.529h-.09L44.6 6.84z"/></symbol><symbol id="common_num5-txt" viewBox="0 0 81 64"><path d="M51.21 25.74a16.578 16.578 0 016.57 6.526 19.127 19.127 0 012.34 9.494 18.991 18.991 0 01-2.43 9.631 16.922 16.922 0 01-6.75 6.568 20.256 20.256 0 01-9.81 2.341q-17.461 0-20.25-14.311l1.26-.541q1.08 6.932 6.03 10.26t12.96 3.33a18.6 18.6 0 009.135-2.2 15.638 15.638 0 006.21-6.119 17.939 17.939 0 002.2-8.955A18.048 18.048 0 0056.52 32.9a15.18 15.18 0 00-6.075-6.075 18.056 18.056 0 00-8.865-2.16q-11.7 0-17.46 7.651h-1.26L25.56 0h32.31v1.26H26.73l-2.34 27.81-.18 1.709h.09Q29.609 23.4 41.58 23.4a19.562 19.562 0 019.63 2.34z"/></symbol><symbol id="common_num6-txt" viewBox="0 0 81 64"><path d="M53.235 2.926A16.364 16.364 0 0158.77 10.8l-1.35.629a14.111 14.111 0 00-4.95-7.379 14.7 14.7 0 00-9.27-2.79q-10.89 0-15.93 8.82t-5.04 21.69a72.929 72.929 0 00.9 11.07h.18a16.461 16.461 0 012.39-9.449A17.347 17.347 0 0132.625 27a19.7 19.7 0 019.135-2.25q8.549 0 13.455 5t4.9 13.274q0 8.281-5.085 13.23T41.4 61.2q-10.171 0-15.345-7.74T20.88 30.6q0-9.992 2.88-16.875a22.492 22.492 0 017.92-10.3A20.037 20.037 0 0143.2 0q6.21 0 10.035 2.926zm-20.43 25.558a17.985 17.985 0 00-6.12 6.346 15.968 15.968 0 00-2.2 8.01 17.886 17.886 0 002.115 8.73 15.615 15.615 0 005.985 6.119 17.025 17.025 0 008.73 2.25q8.01 0 12.69-4.679t4.68-12.42a16.531 16.531 0 00-4.635-12.151q-4.641-4.678-12.29-4.679a16.414 16.414 0 00-8.955 2.474z"/></symbol><symbol id="common_num7-txt" viewBox="0 0 81 64"><path d="M61.335 0v1.26A86.253 86.253 0 0044.55 27.225 106.126 106.126 0 0037.215 59.4h-1.53a109.751 109.751 0 017.2-31.951A83.186 83.186 0 0159.715 1.26h-40.05V0z"/></symbol><symbol id="common_num8-txt" viewBox="0 0 81 64"><path d="M53.46 3.961a12.994 12.994 0 014.86 10.619 13.389 13.389 0 01-3.42 9.4 17.126 17.126 0 01-9.45 5v.09a19.445 19.445 0 0111.2 5.535 14.616 14.616 0 014.19 10.485 14.114 14.114 0 01-2.565 8.326 17.065 17.065 0 01-7.2 5.715A25.7 25.7 0 0140.5 61.2a25.7 25.7 0 01-10.575-2.07 17.059 17.059 0 01-7.2-5.715 14.114 14.114 0 01-2.565-8.325 14.53 14.53 0 014.23-10.49 19.586 19.586 0 0111.16-5.53v-.09a17.112 17.112 0 01-9.45-5 13.385 13.385 0 01-3.42-9.4A13.044 13.044 0 0127.5 3.961Q32.309 0 40.5 0q8.1 0 12.96 3.961zm-3.15 54.09a15.663 15.663 0 006.7-5.266 13.009 13.009 0 002.39-7.695 13.566 13.566 0 00-2.385-7.875 16.016 16.016 0 00-6.7-5.445 23.311 23.311 0 00-9.81-1.979 23.3 23.3 0 00-9.81 1.979 16 16 0 00-6.705 5.445 13.559 13.559 0 00-2.39 7.875 13 13 0 002.385 7.695 15.651 15.651 0 006.705 5.266 24.244 24.244 0 009.81 1.888 24.251 24.251 0 009.81-1.888zM28.575 4.906a11.874 11.874 0 00-4.455 9.674 12.4 12.4 0 004.5 9.99q4.5 3.78 11.88 3.78t11.88-3.78a12.4 12.4 0 004.5-9.99 11.874 11.874 0 00-4.455-9.674Q47.97 1.26 40.5 1.26T28.575 4.906z"/></symbol><symbol id="common_num9-txt" viewBox="0 0 81 64"><path d="M55.26 7.965q5.445 7.965 5.445 22.635a46.384 46.384 0 01-2.7 16.875 22.373 22.373 0 01-7.425 10.306A18.162 18.162 0 0139.645 61.2a21.661 21.661 0 01-12.42-3.467 14.551 14.551 0 01-6.39-9.134l1.53-.809a13.483 13.483 0 005.49 8.865q4.5 3.285 11.79 3.283 10.348 0 15.03-8.593t4.68-21.106A74.6 74.6 0 0058.275 18H58.1a16.143 16.143 0 01-2.43 9.721 17.941 17.941 0 01-7.16 6.479 20.225 20.225 0 01-9.225 2.25q-8.731 0-13.86-4.951T20.3 18.18q0-8.28 5.22-13.229T39.555 0q10.26 0 15.705 7.965zM26.6 5.939q-4.86 4.683-4.86 12.42 0 7.561 4.815 12.2t12.735 4.634a17.139 17.139 0 009.045-2.474 18.485 18.485 0 006.435-6.389 15.367 15.367 0 002.34-7.967 17.317 17.317 0 00-2.2-8.728 16.054 16.054 0 00-6.22-6.125 18.168 18.168 0 00-9.045-2.25q-8.19 0-13.045 4.679z"/></symbol><symbol id="common_print-icon" viewBox="0 0 485.2 485.21"><path d="M151.63 363.91h181.62v30.33H151.63zM121.3 30.33h242.6v68h30.32v-68A30.33 30.33 0 00363.9 0H121.3A30.34 30.34 0 0091 30.33v68h30.3zM151.63 303.26h181.94v30.33H151.63z"/><path d="M454.87 121.3H30.33A30.34 30.34 0 000 151.63v182a30.32 30.32 0 0030.33 30.27H91v91a30.32 30.32 0 0030.32 30.33H363.9a30.3 30.3 0 0030.32-30.33v-91h60.65a30.31 30.31 0 0030.33-30.32V151.63a30.34 30.34 0 00-30.33-30.33zm-91 333.59H121.3v-182h242.6v182zM62.54 220.28A30.33 30.33 0 1192.87 190a30.3 30.3 0 01-30.33 30.28z"/></symbol><symbol id="contactBox-itemNumber" viewBox="0 0 400 42.05"><g fill-rule="evenodd"><path d="M49.73 37.71c9.1 0 13.9-6.55 13.9-18.86S58.83 0 49.73 0 35.88 6.54 35.88 18.85s4.74 18.86 13.85 18.86zm0-5.05c-5.24 0-7.91-4.6-7.91-13.81S44.49 5 49.73 5s8 4.61 8 13.81-2.73 13.85-8 13.85zM79.6.55c-1.9 2.77-8 6.1-10.9 6.49l1.09 5.16a19.63 19.63 0 009.11-5c-.06 1.06-.11 2-.11 2.94v27.02h5.72V.55zm13.85 36.61h25v-5.11h-11.31c-1.48 0-4.58.11-6 .22v-.11c11.94-7.76 16.63-13.64 16.63-20.63C117.82 5.1 113.3 0 105.34 0 97.76 0 93 4.43 92.31 11.37l5.07 2.38c.38-5.32 3.1-8.59 7.63-8.59 4.25 0 6.81 2.71 6.81 6.59 0 6.11-4.57 11.15-18.37 21zm45.3.55c9.1 0 13.9-6.55 13.9-18.86S147.85 0 138.75 0 124.9 6.54 124.9 18.85s4.75 18.86 13.86 18.86zm0-5.05c-5.23 0-7.9-4.6-7.9-13.81S133.52 5 138.75 5s8 4.61 8 13.81-2.72 13.81-8 13.81zM179.2 19.8h-18.58v5.49h18.59V19.8zm22.14-6.16c-3.65 0-6.33 1.11-8 2.94h-.06l.11-.78 1.26-10.15h16.24V.55h-20.83l-2.24 20.8 4.85.33c1.53-2.22 4.15-3.16 7.31-3.16 4.47 0 6.92 2.5 7 7s-2.73 7.1-7.2 7.1c-4.69 0-6.49-2.38-7.47-6l-5.45 3.05c2.4 5.27 6.38 8 13 8 7.63 0 12.81-4.44 12.81-12.48 0-6.88-4.41-11.59-11.34-11.59zm31.73 0c-3.66 0-6.33 1.11-8 2.94h-.06l.11-.78 1.26-10.15h16.24V.55h-20.84l-2.23 20.8 4.85.33c1.53-2.22 4.14-3.16 7.3-3.16 4.47 0 6.93 2.5 7 7s-2.72 7.1-7.2 7.1c-4.69 0-6.49-2.38-7.47-6l-5.45 3.05c2.4 5.27 6.38 8 13 8 7.63 0 12.81-4.44 12.81-12.48 0-6.88-4.4-11.59-11.33-11.59zm31.73 0c-3.66 0-6.33 1.11-8 2.94h-.06l.11-.78 1.26-10.15h16.29V.55h-20.88l-2.24 20.8 4.86.33c1.52-2.22 4.14-3.16 7.3-3.16 4.47 0 6.93 2.5 7 7s-2.73 7.1-7.2 7.1c-4.69 0-6.49-2.38-7.47-6l-5.45 3.05c2.4 5.27 6.38 8 13 8 7.63 0 12.81-4.44 12.81-12.48 0-6.88-4.41-11.59-11.34-11.59zm37.67 6.16h-18.59v5.49h18.59zm6.27 17.36h25v-5.11h-11.32c-1.47 0-4.58.11-5.94.22v-.11c11.94-7.76 16.63-13.64 16.63-20.63C333.11 5.1 328.58 0 320.62 0c-7.57 0-12.32 4.43-13 11.37l5.07 2.38c.39-5.32 3.11-8.59 7.64-8.59 4.25 0 6.81 2.71 6.81 6.59 0 6.11-4.58 11.15-18.37 21zm45.3.55c9.1 0 13.9-6.55 13.9-18.86S363.14 0 354 0s-13.85 6.54-13.85 18.85 4.75 18.86 13.86 18.86zm0-5.05c-5.24 0-7.91-4.6-7.91-13.81S348.8 5 354 5s8 4.61 8 13.81-2.72 13.81-7.95 13.81zm20.96 4.5h25v-5.11h-11.34c-1.47 0-4.58.11-6 .22v-.11c11.94-7.76 16.63-13.64 16.63-20.63C399.34 5.1 394.82 0 386.86 0c-7.58 0-12.32 4.43-13 11.37l5.07 2.38c.38-5.32 3.11-8.59 7.63-8.59 4.25 0 6.82 2.71 6.82 6.59 0 6.11-4.58 11.15-18.38 21zM2.18 1.77l7.28-.23a1.67 1.67 0 011.66 1.36l1.72 8.49a1.74 1.74 0 01-.84 1.86l-4.72 2.62a26.5 26.5 0 009.49 14.84l4.13-3.54a1.59 1.59 0 012-.09L29.73 32a1.79 1.79 0 01.56 2.13l-3 6.92a1.61 1.61 0 01-1.81 1C8.33 38.44-2.81 21.05.62 3.14a1.65 1.65 0 011.56-1.37z"/></g></symbol><symbol id="headerNav-mainBtn_icon" viewBox="0 0 10.3 5.5"><path d="M5.15 5.5L0 0h10.3z" fill-rule="evenodd"/></symbol><symbol id="linkTxt_arrow_down-icon" viewBox="0 0 16 16"><path d="M16 8a8 8 0 10-8 8 8 8 0 008-8zm-8.661 3.54L3.822 7.19a.853.853 0 01.127-1.2.85.85 0 011.2.13l2.856 3.53 2.855-3.53a.851.851 0 111.323 1.07l-3.517 4.35a.86.86 0 01-1.327 0z" fill-rule="evenodd"/></symbol><symbol id="linkTxt_arrow_right-icon" viewBox="0 0 16 16"><path d="M8 0a8 8 0 108 8 8 8 0 00-8-8zm3.538 8.66L7.19 12.18a.83.83 0 01-.533.19.847.847 0 01-.663-.32.856.856 0 01.127-1.2L9.651 8 6.12 5.15a.853.853 0 011.07-1.33l4.348 3.52a.849.849 0 010 1.32z" fill-rule="evenodd"/></symbol><symbol id="linkTxt_arrow_up-icon" viewBox="0 0 14 14"><path d="M0 7a7 7 0 107-7 7 7 0 00-7 7zm7.578-3.1l3.078 3.81a.743.743 0 01.165.47.762.762 0 01-.276.58.753.753 0 01-1.047-.12l-2.5-3.08-2.5 3.08a.743.743 0 11-1.158-.93L6.417 3.9a.755.755 0 011.161 0z" fill-rule="evenodd"/></symbol><symbol id="linkTxt_pdf-icon" viewBox="0 0 19 21"><path d="M2.38 0h11.87C14.36 0 19 4.7 19 4.7v14a2.32 2.32 0 01-2.34 2.3H2.38A2.32 2.32 0 010 18.74V2.3A2.32 2.32 0 012.34 0zM14 0v6h5zM4 15a6.63 6.63 0 010-1v-1.2h1.27a1.74 1.74 0 001.45-.6 1.83 1.83 0 00.46-1.3 1.76 1.76 0 00-.42-1.3 1.72 1.72 0 00-1.46-.5H3.87C3.5 9.1 3.29 9 3 9a8.37 8.37 0 010 1v4a6.63 6.63 0 010 1zm0-3.1v-2h1.27a.84.84 0 01.74.3 1.06 1.06 0 01-.17 1.48 1 1 0 01-.57.22zM7.84 14a5.54 5.54 0 010 1h2.07a2.16 2.16 0 001.79-.7 3 3 0 00.81-2.3 3.17 3.17 0 00-.76-2.3 2.18 2.18 0 00-1.85-.6H8.66c-.43 0-.6-.1-.87-.1a8.39 8.39 0 01.06 1v4zm.92.1V9.9h1.1a1.55 1.55 0 011.23.5 2.3 2.3 0 01.47 1.6 2.32 2.32 0 01-.5 1.6 1.54 1.54 0 01-1.21.5zm5.29-1.7h1.56a2.76 2.76 0 011 .1v-1h-2.56V10H17V9c-.31 0-.54.1-1 .1h-2c-.45 0-.63-.1-.93-.1a8.39 8.39 0 01.06 1v3.9A10 10 0 0113 15h1.09a6.7 6.7 0 01-.06-1.1v-1.5z" fill-rule="evenodd"/></symbol><symbol id="pagetop_arrow-icon" viewBox="0 0 33.74 20.27"><path d="M33.74 17.88l-3.45 2.39L16.87 6 3.44 20.27 0 17.88 16.87 0z" fill-rule="evenodd"/></symbol><symbol id="roundBtn_arrow-icon" viewBox="0 0 9 15"><path d="M1.06 15l-1.062-1.5 6.322-6-6.322-6L1.06 0l7.946 7.5z" fill-rule="evenodd"/></symbol><symbol id="telBtn-icon" viewBox="0 0 34 45.98"><path d="M2.43.26L10.57 0a1.88 1.88 0 011.85 1.54l1.91 9.64a2 2 0 01-.93 2.11l-5.28 3a30.16 30.16 0 0010.61 16.82l4.62-4a1.73 1.73 0 012.19-.1l7.67 5.58a2 2 0 01.63 2.41l-3.34 7.84a1.82 1.82 0 01-2 1.1C9.31 41.89-3.15 22.15.7 1.82A1.86 1.86 0 012.43.26z" fill-rule="evenodd"/></symbol><symbol id="thumb_contactBox_faq" viewBox="0 0 86 86"><g id="&#x30EC;&#x30A4;&#x30E4;&#x30FC;_2" data-name="&#x30EC;&#x30A4;&#x30E4;&#x30FC; 2"><g id="&#x30EC;&#x30A4;&#x30E4;&#x30FC;_1-2" data-name="&#x30EC;&#x30A4;&#x30E4;&#x30FC; 1"><g id="&#x30B0;&#x30EB;&#x30FC;&#x30D7;_10" data-name="&#x30B0;&#x30EB;&#x30FC;&#x30D7; 10"><path d="M66 69.8l-7.66-6H45.09a5.66 5.66 0 01-5.65-5.65V39.59a5.66 5.66 0 015.65-5.65h21.39a5.65 5.65 0 015.65 5.65v18.6a5.65 5.65 0 01-5.65 5.65h-1.37zm-4.4-6l1.72 1.34-.19-1.34zm3.27-2h1.65a3.65 3.65 0 003.65-3.65V39.59a3.65 3.65 0 00-3.65-3.65H45.09a3.66 3.66 0 00-3.65 3.65v18.6a3.66 3.66 0 003.65 3.65h10.64l-.09-.07 1.23-1.58L59 61.84h3.82l-.11-.72 2-.28z"/><g><path d="M48.58 55.76l5.62-14.65h2.09l6 14.65h-2.21l-1.71-4.44h-6.13l-1.6 4.44zm4.22-6h5l-1.53-4.05c-.47-1.23-.81-2.25-1-3a18 18 0 01-.79 2.8z"/></g><path d="M20.5 55.85l.85-6H20a5.66 5.66 0 01-5.65-5.65V25.64A5.66 5.66 0 0120 20h21.37A5.66 5.66 0 0147 25.64v18.6a5.65 5.65 0 01-5.65 5.65H28.16zm2.87-6l-.19 1.34 1.73-1.34zm7.37-2h10.63A3.65 3.65 0 0045 44.24v-18.6A3.65 3.65 0 0041.37 22H20a3.66 3.66 0 00-3.65 3.65v18.6A3.66 3.66 0 0020 47.89h1.66l.14-1 2 .28-.1.72h3.82l2.12-1.65 1.23 1.58z"/><g><path d="M34.11 39.29a11.58 11.58 0 002.49 1.36L36 42a11.53 11.53 0 01-3.15-1.8 7.18 7.18 0 01-3.59.91 6.94 6.94 0 01-3.61-1 6.38 6.38 0 01-2.49-2.7 8.46 8.46 0 01-.88-3.91 8.88 8.88 0 01.88-3.95 6.22 6.22 0 012.51-2.71 7.25 7.25 0 013.66-.84 7 7 0 013.65 1 6.26 6.26 0 012.49 2.7 8.71 8.71 0 01.85 3.91 9 9 0 01-.55 3.25 6.84 6.84 0 01-1.66 2.43zm-4.26-2.47a7 7 0 012.76 1.39 6 6 0 001.71-4.68 7.5 7.5 0 00-.6-3.11A4.76 4.76 0 0032 28.36a5 5 0 00-6.21.75 6.16 6.16 0 00-1.43 4.43 6.19 6.19 0 001.42 4.38 4.69 4.69 0 003.61 1.53 4.92 4.92 0 001.95-.39 6.36 6.36 0 00-1.91-.84z"/></g></g></g></g></symbol><symbol id="thumb_contactBox_flow" viewBox="0 0 86 86"><g id="&#x30EC;&#x30A4;&#x30E4;&#x30FC;_2" data-name="&#x30EC;&#x30A4;&#x30E4;&#x30FC; 2"><g id="&#x30EC;&#x30A4;&#x30E4;&#x30FC;_1-2" data-name="&#x30EC;&#x30A4;&#x30E4;&#x30FC; 1"><g id="&#x30B0;&#x30EB;&#x30FC;&#x30D7;_9" data-name="&#x30B0;&#x30EB;&#x30FC;&#x30D7; 9"><path d="M56.33 66.92H18.38V19.09h28.38l9.57 9.57v8.72h-2v-7.9l-8.4-8.39H20.38v43.83h33.95V51.76h2v15.16z"/><path d="M53.53 31.87h-9.09v-9.99h2v7.99h7.09v2zM25.67 32.56h23.36v2H25.67zM25.67 39.75h23.36v2H25.67zM25.67 46.94h21.2v2h-21.2zM25.67 54.13H43v2H25.67z"/><g id="&#x30B0;&#x30EB;&#x30FC;&#x30D7;_8" data-name="&#x30B0;&#x30EB;&#x30FC;&#x30D7; 8"><path d="M42 62.27a1 1 0 01-.62-.22 1 1 0 01-.38-.95l1.52-9.1a1 1 0 01.21-.46L59 31.18a1 1 0 01.67-.37 1 1 0 01.74.21l7 5.62a1 1 0 01.16 1.4L51.3 58.39a.92.92 0 01-.4.3l-8.56 3.5a1 1 0 01-.34.08zm2.49-9.7l-1.2 7.09 6.66-2.72L65.4 37.58 60 33.21z"/><path transform="rotate(-51.33 44.782 57.778)" d="M43.79 54.75h2v6.07h-2z"/><path transform="rotate(-51.32 48.147 53.554)" d="M47.14 49.06h2v8.99h-2z"/></g></g></g></g></symbol><symbol id="thumb_contactBox_price" viewBox="0 0 86 86"><g data-name="&#x30EC;&#x30A4;&#x30E4;&#x30FC; 2"><g data-name="&#x30EC;&#x30A4;&#x30E4;&#x30FC; 1"><path d="M43 66.49a22.62 22.62 0 1122.62-22.62A22.65 22.65 0 0143 66.49zm0-43.24a20.62 20.62 0 1020.62 20.62A20.64 20.64 0 0043 23.25z"/><path d="M41.8 55h2.4v-5h4.53v-1.64H44.2v-2l.25-.46h4.28v-1.74h-3.25l5.45-9.33h-2.85L43 44.16l-5.08-9.33h-2.86l5.46 9.33h-3.26v1.71h4.28l.26.46v2h-4.54v1.71h4.54v5z" fill-rule="evenodd"/></g></g></symbol></svg>